<svg width="27" height="27" viewBox="0 0 27 27" fill="none" xmlns="http://www.w3.org/2000/svg">
<path d="M14.85 5.4C14.85 4.65328 14.2468 4.05 13.5 4.05C12.7533 4.05 12.15 4.65328 12.15 5.4V12.15H5.40005C4.65333 12.15 4.05005 12.7533 4.05005 13.5C4.05005 14.2467 4.65333 14.85 5.40005 14.85H12.15V21.6C12.15 22.3467 12.7533 22.95 13.5 22.95C14.2468 22.95 14.85 22.3467 14.85 21.6V14.85H21.6C22.3468 14.85 22.95 14.2467 22.95 13.5C22.95 12.7533 22.3468 12.15 21.6 12.15H14.85V5.4Z" fill="white"/>
</svg>
